<?xml version="1.0" encoding="UTF-8" standalone="no"?>
<!-- Created with Inkscape (http://www.inkscape.org/) -->

<svg
   xmlns:dc="http://purl.org/dc/elements/1.1/"
   xmlns:cc="http://creativecommons.org/ns#"
   xmlns:rdf="http://www.w3.org/1999/02/22-rdf-syntax-ns#"
   xmlns:svg="http://www.w3.org/2000/svg"
   xmlns="http://www.w3.org/2000/svg"
   xmlns:sodipodi="http://sodipodi.sourceforge.net/DTD/sodipodi-0.dtd"
   xmlns:inkscape="http://www.inkscape.org/namespaces/inkscape"
   width="16"
   height="16"
   viewBox="0 0 16 16"
   id="svg2"
   version="1.1"
   inkscape:version="0.91 r13725"
   inkscape:export-filename="C:\Users\James Phillips\Documents\GitHub\StampDigital.github.io\favicon4.png"
   inkscape:export-xdpi="600.20001"
   inkscape:export-ydpi="600.20001">
  <defs
     id="defs4" />
  <sodipodi:namedview
     id="base"
     pagecolor="#ffffff"
     bordercolor="#666666"
     borderopacity="1.0"
     inkscape:pageopacity="0.0"
     inkscape:pageshadow="2"
     inkscape:zoom="22.4"
     inkscape:cx="3.7157554"
     inkscape:cy="2.0885539"
     inkscape:document-units="px"
     inkscape:current-layer="layer1"
     showgrid="false"
     units="px"
     inkscape:window-width="1920"
     inkscape:window-height="1017"
     inkscape:window-x="-8"
     inkscape:window-y="-8"
     inkscape:window-maximized="1" />
  <metadata
     id="metadata7">
    <rdf:RDF>
      <cc:Work
         rdf:about="">
        <dc:format>image/svg+xml</dc:format>
        <dc:type
           rdf:resource="http://purl.org/dc/dcmitype/StillImage" />
        <dc:title></dc:title>
      </cc:Work>
    </rdf:RDF>
  </metadata>
  <g
     inkscape:label="Layer 1"
     inkscape:groupmode="layer"
     id="layer1"
     transform="translate(0,-1036.3622)">
    <g
       id="g4393"
       transform="matrix(2.3628626,0,0,2.3628626,-10.554731,-1426.3395)">
      <path
         transform="translate(0,1036.3622)"
         id="path4389"
         d="m 8.2246094,11.628906 c 0.097876,0 0.089272,0.10013 -0.017578,0.207032 -0.139523,0.139495 -0.2199327,0.104106 -0.1328124,-0.05859 0.043506,-0.0809 0.1111706,-0.148438 0.1503906,-0.148438 z"
         style="fill-opacity:1"
         inkscape:connector-curvature="0" />
      <path
         transform="translate(0,1036.3622)"
         id="path4387"
         d="m 8.0722656,11.222656 c 0.04131,-0.025 0.076172,0.0044 0.076172,0.06836 0,0.131 -0.046025,0.149275 -0.109375,0.04687 -0.02339,-0.0382 -0.00811,-0.09024 0.033203,-0.115235 z"
         style="fill-opacity:1"
         inkscape:connector-curvature="0" />
      <path
         transform="translate(0,1036.3622)"
         id="path4385"
         d="m 7.8417969,10.667969 c 0.03504,0 0.048727,0.08229 0.029297,0.183593 -0.01942,0.100802 -0.048873,0.185547 -0.064453,0.185547 -0.01559,0 -0.029297,-0.08425 -0.029297,-0.185547 0,-0.100697 0.029443,-0.183593 0.064453,-0.183593 z m 0.796875,0 c 0.095352,0 0.173575,0.0408 0.171875,0.0918 -0.00406,0.1211 -0.2852219,0.631156 -0.2949219,0.535156 -0.059878,-0.5931 -0.053462,-0.626953 0.1230469,-0.626953 z"
         style="fill-opacity:1"
         inkscape:connector-curvature="0" />
      <path
         transform="translate(0,1036.3622)"
         id="path4383"
         d="m 7.1503906,8.8964844 0.1835938,0.017578 c 0.183556,0.0174 0.185547,0.021459 0.1855468,0.7558594 l 0,0.00195 0,0.7382812 -0.203125,0.02344 -0.203125,0.02344 0,-0.5117187 c 0,-0.4727 0.012483,-0.51575 0.1835938,-0.59375 C 7.526368,9.2470643 7.5351603,9.09127 7.316406,8.9804706 L 7.1503906,8.8964844 Z"
         style="fill-opacity:1"
         inkscape:connector-curvature="0" />
      <path
         transform="translate(0,1036.3622)"
         id="path4381"
         d="m 5.9101562,8.671875 0.050781,0.5585938 c 0.109904,1.2128002 0.5670611,2.2677162 1.2519531,2.8867192 0.197466,0.178397 0.3986957,0.324218 0.4472656,0.324218 0.048566,0 0.2257222,-0.09986 0.3925782,-0.222656 0.330306,-0.2429 0.6473059,-0.693225 0.9355468,-1.328125 0.181945,-0.4007 0.4155717,-1.5103156 0.4160157,-1.9785156 l 0,-0.2402344 -1.7480469,0 -1.7460938,0 z m 3.2714844,0.2167969 0,0.2109375 c 0,0.2087 -0.1203493,0.9670966 -0.1933594,1.2167966 -0.031644,0.1083 -0.1281757,0.128909 -0.5898437,0.128906 -0.390629,0 -0.5612006,-0.02766 -0.5878906,-0.09766 -0.02076,-0.054 -0.029418,-0.3952124 -0.017578,-0.7578122 l 0.021484,-0.6601563 0.6835938,-0.019531 0.6835937,-0.021484 z m -3.046875,0.00781 0.2128906,0 0.2109376,0 L 6.3769531,9.0371094 6.1953125,9.1757812 6.46875,9.3378906 c 0.270719,0.1597 0.2753906,0.1673657 0.2753906,0.6347656 l 0,0.00391 c 0,0.4530998 -0.00731,0.4726568 -0.1816406,0.4726568 -0.211169,0 -0.2930331,-0.225935 -0.3769531,-1.0527349 l -0.050781,-0.5 z m 0.9042969,1.7714841 0.5175781,0 0,0.703125 c 0,0.3861 -0.026414,0.701172 -0.058594,0.701172 -0.09845,0 -0.6470373,-0.611757 -0.8164063,-0.910157 -0.258894,-0.4556 -0.2312151,-0.49414 0.3574219,-0.49414 z"
         style="fill-opacity:1"
         inkscape:connector-curvature="0" />
      <path
         transform="translate(0,1036.3622)"
         id="path4379"
         d="m 7.6269531,6.0546875 c -0.059577,0.00774 -0.1173875,0.068334 -0.1328125,0.1777344 -0.014177,0.1005 -0.1062081,0.2790844 -0.2050781,0.3964843 -0.114305,0.1359 -0.1648488,0.2645157 -0.1367187,0.3535157 0.057958,0.181 -0.07618,0.1777343 -0.3144532,-0.00977 -0.266895,-0.2091 -0.417325,-0.1938906 -0.359375,0.037109 0.02551,0.1016 0.00288,0.2509375 -0.048828,0.3359375 -0.080717,0.1324 -0.070026,0.1713031 0.066406,0.2832031 0.1007419,0.0827 0.1369924,0.1693282 0.1015624,0.2363282 -0.030578,0.0581 -0.076352,0.2140562 -0.1015624,0.3476562 -0.038472,0.2038761 -0.018034,0.2529663 0.1191406,0.3085938 0.090752,0.037 0.2520779,0.072266 0.3574218,0.072266 0.1612511,0.004 0.20583,-0.043122 0.28125,-0.2949219 0.172171,-0.5748 0.6684129,-0.5461781 0.7792969,0.044922 0.050709,0.2707 0.1145102,0.2959844 0.5488281,0.2089844 C 8.7704822,8.5150344 8.81287,8.4708 8.8125,8.3125 8.81225,8.2057 8.7654144,8.029975 8.7089844,7.921875 8.6159144,7.743575 8.6190867,7.7205 8.7460938,7.6875 8.8973536,7.6479 8.9390276,7.3827814 8.8066406,7.3007812 8.7626606,7.2736813 8.7457715,7.1750781 8.7695312,7.0800781 8.8349633,6.8194781 8.6870018,6.7887594 8.4023438,7.0058594 8.1415327,7.2051594 8.1214281,7.1999344 8.1425781,6.9277344 8.1492401,6.8418344 8.0754025,6.6759938 7.9765625,6.5585938 7.8777205,6.4411937 7.7832281,6.2792656 7.7675781,6.1972656 7.7473881,6.0929156 7.6865301,6.04695 7.6269531,6.0546875 Z m 0.00391,1.2871094 c 0.134806,0 0.2103137,0.031219 0.1835937,0.074219 -0.02512,0.041 -0.1071037,0.074219 -0.1835937,0.074219 -0.076495,0 -0.1604269,-0.033219 -0.1855469,-0.074219 -0.026719,-0.044 0.050746,-0.074219 0.1855469,-0.074219 z M 8.078125,7.5644531 c 0.094173,0 0.1425781,0.051438 0.1425781,0.1484375 0,0.165 -0.048315,0.1781063 -0.2402343,0.066406 -0.157371,-0.0916 -0.1016108,-0.2148438 0.097656,-0.2148438 z m -0.8691406,0.021484 c 0.029446,-0.00669 0.060779,-0.00539 0.089844,0.00586 0.10295,0.0396 0.1093663,0.068203 0.035156,0.1582031 -0.094769,0.114 -0.2949688,0.1516875 -0.2929688,0.054687 0.00219,-0.107325 0.079631,-0.1986828 0.1679688,-0.21875 z m -0.2734375,0.421875 c 0.212708,0 0.2584462,0.024188 0.2226562,0.1171875 -0.02467,0.0644 -0.044922,0.1455933 -0.044922,0.1835938 0,0.038 -0.1007172,0.068359 -0.2226562,0.068359 -0.187217,0 -0.2207031,-0.029547 -0.2207031,-0.1855469 0,-0.162699 0.030557,-0.1835937 0.265625,-0.1835937 z m 1.453125,0.013672 c 0.184089,0.0177 0.2455716,0.062053 0.2636719,0.1894531 0.020706,0.1453 -0.00894,0.1660156 -0.2402344,0.1660156 -0.233859,0 -0.2636719,-0.021453 -0.2636719,-0.1894531 0,-0.1662 0.025701,-0.1870156 0.2402344,-0.1660156 z"
         style="fill-opacity:1"
         inkscape:connector-curvature="0" />
    </g>
  </g>
</svg>
