<?xml version="1.0" encoding="UTF-8" standalone="no"?>
<!-- Created with Inkscape (http://www.inkscape.org/) -->

<svg
   xmlns:dc="http://purl.org/dc/elements/1.1/"
   xmlns:cc="http://creativecommons.org/ns#"
   xmlns:rdf="http://www.w3.org/1999/02/22-rdf-syntax-ns#"
   xmlns:svg="http://www.w3.org/2000/svg"
   xmlns="http://www.w3.org/2000/svg"
   xmlns:sodipodi="http://sodipodi.sourceforge.net/DTD/sodipodi-0.dtd"
   xmlns:inkscape="http://www.inkscape.org/namespaces/inkscape"
   width="16"
   height="16"
   viewBox="0 0 16 16"
   id="svg2"
   version="1.1"
   inkscape:version="0.91 r13725">
  <defs
     id="defs4" />
  <sodipodi:namedview
     id="base"
     pagecolor="#ffffff"
     bordercolor="#666666"
     borderopacity="1.0"
     inkscape:pageopacity="0.0"
     inkscape:pageshadow="2"
     inkscape:zoom="22.4"
     inkscape:cx="-14.230883"
     inkscape:cy="8.2759234"
     inkscape:document-units="px"
     inkscape:current-layer="layer1"
     showgrid="false"
     units="px"
     inkscape:window-width="1920"
     inkscape:window-height="1017"
     inkscape:window-x="-8"
     inkscape:window-y="-8"
     inkscape:window-maximized="1" />
  <metadata
     id="metadata7">
    <rdf:RDF>
      <cc:Work
         rdf:about="">
        <dc:format>image/svg+xml</dc:format>
        <dc:type
           rdf:resource="http://purl.org/dc/dcmitype/StillImage" />
        <dc:title></dc:title>
      </cc:Work>
    </rdf:RDF>
  </metadata>
  <g
     inkscape:label="Layer 1"
     inkscape:groupmode="layer"
     id="layer1"
     transform="translate(0,-1036.3622)">
    <g
       id="g4320"
       transform="matrix(1.0443579,0,0,1.0443579,-0.32061503,-46.649441)">
      <path
         style="fill-opacity:1"
         d="m 6.7071572,1051.6688 c -0.1343655,-0.1344 -0.1730274,-0.1397 -0.4391125,-0.06 -0.2769226,0.083 -0.3013316,0.078 -0.4795267,-0.1004 -0.181021,-0.181 -0.3063144,-0.218 -0.6455484,-0.1906 -0.1139604,0.01 -0.2006585,-0.058 -0.3077346,-0.2398 -0.147125,-0.2494 -0.3232463,-0.3193 -0.4599517,-0.1826 -0.1186318,0.1187 -0.382779,-0.1218 -0.382779,-0.3485 0,-0.2697 -0.1541908,-0.3945 -0.3548237,-0.2871 -0.2052855,0.1098 -0.3253829,0.05 -0.3815241,-0.1895 -0.1088433,-0.4646 -0.193666,-0.5895 -0.4004408,-0.5895 -0.2271387,0 -0.4200086,-0.2206 -0.4200086,-0.4803 0,-0.2436 -0.1150228,-0.4176 -0.3081136,-0.4661 -0.1879433,-0.047 -0.2549916,-0.2149 -0.2581118,-0.6458 -0.00233,-0.3217 -0.034338,-0.3823 -0.2867649,-0.5426 -0.1700344,-0.1079 -0.178964,-0.1426 -0.1507952,-0.5849 0.023635,-0.3712 0.00487,-0.498 -0.089104,-0.6018 -0.099077,-0.1095 -0.1220112,-0.3174 -0.1367267,-1.2395 -0.00972,-0.6094 0.00821,-1.1241 0.039859,-1.1436 0.031647,-0.02 0.05754,-0.1114 0.05754,-0.2041 0,-0.093 0.031844,-0.1883 0.070764,-0.2123 0.03892,-0.024 0.070763,-0.2185 0.070763,-0.4322 0,-0.316 0.030919,-0.4174 0.1660649,-0.5442 0.1213431,-0.1139 0.1789157,-0.2674 0.2137833,-0.5702 0.058181,-0.5051 0.1316894,-0.6534 0.3512487,-0.7085 0.1355017,-0.034 0.2020502,-0.1436 0.3379932,-0.5566 0.1611773,-0.4896 0.1788666,-0.5132 0.3699381,-0.4929 0.256571,0.027 0.4008231,-0.094 0.4008231,-0.3361 0,-0.2248 0.2618051,-0.499 0.4764269,-0.499 0.2211518,0 0.3727352,-0.074 0.3727352,-0.1811 0,-0.052 0.036627,-0.1757 0.081393,-0.2739 0.071282,-0.1565 0.1206028,-0.1767 0.3970152,-0.1626 0.3267976,0.017 0.325755,0.018 0.5128475,-0.3848 0.1115369,-0.2398 0.304404,-0.2916 0.4504885,-0.121 0.062517,0.073 0.1568091,0.1327 0.2095379,0.1327 0.1091245,0 0.2873716,-0.1878 0.3525007,-0.3715 0.053857,-0.1518 0.2130082,-0.1603 0.3314127,-0.018 0.1366776,0.1647 0.406224,0.1292 0.5372335,-0.071 0.1401217,-0.2139 0.2482763,-0.223 0.4180739,-0.035 0.1706327,0.1885 0.3615119,0.1788 0.4952319,-0.025 0.1278478,-0.1951 0.3797822,-0.1807 0.5729539,0.033 0.1469284,0.1624 0.2639273,0.1687 0.4817424,0.026 0.1540727,-0.101 0.1762832,-0.096 0.3336372,0.07 0.1847989,0.1948 0.3479902,0.224 0.5493619,0.098 0.1813835,-0.1133 0.3600365,-0.027 0.4526035,0.218 l 0.07796,0.2066 0.273026,-0.1537 c 0.269276,-0.1515 0.274437,-0.1517 0.375798,-0.016 0.05653,0.075 0.102774,0.2119 0.102774,0.3029 0,0.2114 0.171629,0.2776 0.401086,0.1548 0.159439,-0.085 0.190193,-0.081 0.27828,0.04 0.05447,0.074 0.09903,0.1892 0.09903,0.2548 0,0.1905 0.201702,0.3065 0.502257,0.2888 0.297206,-0.018 0.291198,-0.024 0.415128,0.4605 0.05845,0.2286 0.120678,0.31 0.279278,0.3653 0.168898,0.059 0.212797,0.124 0.25472,0.3781 0.06077,0.3682 0.143128,0.4838 0.34473,0.4838 0.18988,0 0.28038,0.1446 0.398797,0.6369 0.06049,0.2515 0.1668,0.4615 0.30046,0.5936 0.173284,0.1712 0.200037,0.2429 0.164865,0.4422 -0.02309,0.1309 -0.06051,0.3418 -0.08314,0.4688 -0.03484,0.1954 -0.0077,0.2606 0.176909,0.4251 0.254958,0.2272 0.29049,0.5509 0.09739,0.8873 -0.108054,0.1883 -0.11094,0.2593 -0.0276,0.6785 0.105311,0.5299 0.05952,0.9086 -0.140602,1.163 -0.08992,0.1143 -0.135707,0.2844 -0.135707,0.5042 0,0.4945 -0.187094,0.9771 -0.42689,1.1011 -0.216914,0.1121 -0.24828,0.1798 -0.320514,0.6913 -0.05761,0.4079 -0.207935,0.6105 -0.530784,0.7152 -0.152853,0.05 -0.249325,0.1303 -0.262811,0.2198 -0.05283,0.3509 -0.09954,0.473 -0.23151,0.605 -0.11445,0.1144 -0.169027,0.1265 -0.286784,0.063 -0.211603,-0.1133 -0.309024,-0.047 -0.405725,0.2757 -0.09654,0.3222 -0.371667,0.5773 -0.622738,0.5773 -0.09205,0 -0.167366,0.042 -0.167366,0.094 0,0.1151 -0.295297,0.4015 -0.41394,0.4015 -0.04751,0 -0.161286,-0.049 -0.252832,-0.1091 -0.150654,-0.099 -0.177321,-0.098 -0.281028,0.01 -0.06302,0.063 -0.147334,0.1757 -0.187369,0.2505 -0.086931,0.1625 -0.2991324,0.1775 -0.4216283,0.03 -0.1240399,-0.1494 -0.3350694,-0.1319 -0.424581,0.035 -0.05337,0.1 -0.1481661,0.1415 -0.3209253,0.1415 -0.1348505,0 -0.2451828,-0.032 -0.2451828,-0.071 0,-0.039 -0.079609,-0.071 -0.1769088,-0.071 -0.0973,0 -0.1769088,0.032 -0.1769088,0.071 0,0.092 -0.6067603,0.092 -0.7787561,-3e-4 -0.088625,-0.047 -0.1471191,-0.047 -0.176433,0 -0.078593,0.1272 -0.4920108,0.078 -0.6467321,-0.076 z m 2.2568559,-0.3971 c 0.098109,-0.087 0.1534755,-0.1012 0.1733713,-0.044 0.056089,0.1599 1.0115456,-0.058 1.0115456,-0.2303 0,-0.055 -0.03184,-0.1007 -0.07076,-0.1007 -0.03892,0 -0.07076,0.032 -0.07076,0.071 0,0.039 -0.1379538,0.071 -0.3065634,0.071 -0.2887031,0 -0.3109915,-0.014 -0.3825758,-0.2477 -0.072277,-0.2354 -0.067642,-0.2476 0.094272,-0.2476 0.1824807,0 0.2238774,0.1304 0.085369,0.2689 -0.066046,0.066 -0.058183,0.085 0.035382,0.085 0.066164,0 0.1202979,-0.032 0.1202979,-0.071 0,-0.039 0.064475,-0.071 0.1432785,-0.071 0.087718,0 0.1693604,-0.069 0.2105398,-0.1769 0.03699,-0.097 0.114814,-0.177 0.172936,-0.177 0.06486,0 0.08994,0.041 0.06494,0.1062 -0.0224,0.058 -0.0055,0.1061 0.0376,0.1061 0.04308,0 0.07833,-0.05 0.07833,-0.1109 0,-0.075 0.0417,-0.098 0.127395,-0.07 0.07598,0.024 0.224331,-0.031 0.367566,-0.1367 0.132094,-0.098 0.314713,-0.1772 0.405821,-0.1772 0.143722,0 0.155624,0.019 0.08991,0.1415 -0.08972,0.1677 -0.01779,0.1791 0.250617,0.04 0.390366,-0.2025 1.449757,-1.2835 1.768827,-1.8049 0.382542,-0.6252 0.818922,-1.5569 0.963023,-2.0561 0.183984,-0.6374 0.259785,-2.2467 0.108559,-2.3047 -0.06158,-0.024 -0.158011,-0.2521 -0.229427,-0.5435 -0.06776,-0.2765 -0.16596,-0.5847 -0.218221,-0.6848 -0.05226,-0.1002 -0.09521,-0.2485 -0.09545,-0.3296 -9.84e-4,-0.3325 -1.124193,-1.9671 -1.602161,-2.3317 -0.256757,-0.1958 -0.384005,-0.3043 -0.698089,-0.5953 -0.204039,-0.189 -1.214,-0.6793 -1.7418,-0.8457 -0.2485285,-0.078 -0.716939,-0.1797 -1.0409135,-0.2252 -0.413709,-0.058 -0.5667895,-0.1051 -0.5142802,-0.1576 0.05251,-0.053 0.2594403,-0.05 0.6951892,0.01 0.8960586,0.1205 0.8741537,0.1139 1.7021675,0.5116 0.984135,0.4727 1.224964,0.6355 1.80694,1.2221 0.265497,0.2676 0.496398,0.4729 0.513114,0.4561 0.07299,-0.073 -0.524694,-0.7207 -0.935493,-1.0139 -0.247248,-0.1764 -0.449543,-0.3669 -0.449543,-0.4233 0,-0.056 -0.06137,-0.1026 -0.136385,-0.1026 -0.07501,0 -0.337721,-0.1049 -0.583799,-0.2331 -1.2412736,-0.6468 -2.4745634,-0.9085 -3.6019316,-0.7643 -0.7085157,0.091 -1.6126296,0.348 -2.1231354,0.6044 -0.1978207,0.099 -0.3917834,0.1807 -0.4310281,0.1807 -0.039245,0 -0.2356509,0.1386 -0.436458,0.308 -0.200807,0.1694 -0.4176437,0.3366 -0.4818591,0.3715 -0.1998696,0.1087 -1.0653896,1.113 -1.167742,1.3549 -0.05351,0.1265 -0.1247622,0.23 -0.1583389,0.23 -0.1938862,0 -0.8556572,1.662 -1.0063639,2.5274 -0.1277042,0.7334 -0.044333,2.4152 0.1500837,3.0276 0.189616,0.5972 0.6217761,1.4733 0.9569666,1.9398 0.1349235,0.1878 0.2453154,0.3634 0.2453154,0.3903 0,0.054 0.5031015,0.615 0.7783987,0.8677 0.4318181,0.3963 0.5156043,0.4539 0.6087208,0.4181 0.054403,-0.021 0.098914,0 0.098914,0.038 0,0.046 0.070416,0.059 0.1783607,0.031 0.2450143,-0.062 0.4446912,0.062 0.4714989,0.2923 0.017838,0.153 0.079975,0.2117 0.3054478,0.2886 0.1556797,0.053 0.3785847,0.1423 0.4953445,0.1982 0.6554736,0.3139 2.8548244,0.398 3.1670393,0.1212 z m -1.743748,-0.023 c -0.6678569,-0.1167 -0.4630067,-0.1824 0.5577633,-0.179 0.7712256,0 1.0256877,0.025 1.0259913,0.092 2.83e-4,0.061 -0.1297046,0.088 -0.4153323,0.088 -0.2286546,0 -0.5072859,0.013 -0.6191807,0.03 -0.1118948,0.016 -0.3590535,0 -0.5492416,-0.031 z m -0.1738706,-1.0655 c -0.5468057,-0.071 -1.3163753,-0.3193 -1.4722599,-0.4752 -0.16297,-0.1629 -0.016811,-0.185 0.3047074,-0.046 0.4605768,0.1991 1.2930004,0.315 2.2044492,0.307 0.8671445,-0.01 0.9841704,0.01 0.907116,0.1343 -0.062558,0.1012 -0.809893,0.1681 -0.9629556,0.086 -0.089636,-0.048 -0.1489633,-0.048 -0.1782177,-9e-4 -0.049046,0.079 -0.1561597,0.079 -0.8028394,-0.01 z m 2.9963895,-0.4495 c 0.212861,-0.1817 0.3892,-0.236 0.3892,-0.1198 0,0.1001 -0.16181,0.2061 -0.389595,0.2553 l -0.2118951,0.046 0.2122901,-0.1813 z m -2.4867599,-0.5633 c -0.6558029,-0.5927 -1.0942296,-1.6031 -1.1994656,-2.7644 l -0.048379,-0.5339 1.672703,0 1.672703,0 -2.123e-4,0.23 c -4.245e-4,0.4483 -0.2231421,1.5092 -0.397359,1.8929 -0.2759982,0.6079 -0.5803528,1.0398 -0.8966289,1.2724 -0.1597691,0.1175 -0.3285263,0.2136 -0.3750295,0.2136 -0.046503,0 -0.2392524,-0.1398 -0.4283313,-0.3106 z m 0.3284733,-0.7154 0,-0.6723 -0.4953446,0 c -0.5636351,0 -0.5903132,0.037 -0.3424149,0.4736 0.1621746,0.2857 0.687461,0.8709 0.7817295,0.8709 0.030817,0 0.05603,-0.3025 0.05603,-0.6722 z m 0.6227189,0.4458 c 0.102312,-0.1023 0.1103606,-0.1982 0.016642,-0.1982 -0.037551,0 -0.102358,0.064 -0.1440164,0.1416 -0.083416,0.1558 -0.0062,0.1901 0.1273743,0.057 z m -0.056611,-0.5208 c 0,-0.061 -0.032363,-0.09 -0.071918,-0.066 -0.039555,0.024 -0.053598,0.074 -0.031205,0.1104 0.060661,0.098 0.103123,0.08 0.103123,-0.045 z m 0.6339051,-0.5088 c 0.00163,-0.049 -0.071737,-0.089 -0.1630405,-0.089 -0.1690116,0 -0.1755926,0.034 -0.1182579,0.6015 0.00929,0.092 0.2774079,-0.397 0.2812984,-0.513 z m -0.8996397,0.088 c 0.0186,-0.097 0.00639,-0.1769 -0.027132,-0.1769 -0.033523,0 -0.060951,0.08 -0.060951,0.1769 0,0.097 0.012209,0.1769 0.027132,0.1769 0.014923,0 0.04235,-0.08 0.060951,-0.1769 z m -1.0787721,-0.8422 c 0,-0.4475 -0.00316,-0.4548 -0.2623809,-0.6077 l -0.2623809,-0.1549 0.1739265,-0.1336 0.1739265,-0.1337 -0.2028434,0 -0.2028434,0 0.048487,0.4776 c 0.080359,0.7917 0.1577273,1.0084 0.3599268,1.0084 0.1669256,0 0.1741813,-0.019 0.1741813,-0.453 z m 0.7430168,-0.29 c 0,-0.7032 -0.00112,-0.7077 -0.1769088,-0.7244 l -0.1769087,-0.017 0.1592179,0.081 c 0.2094629,0.1061 0.2020506,0.2548 -0.017691,0.3549 -0.1638434,0.075 -0.1769088,0.1167 -0.1769088,0.5693 l 0,0.4887 0.1945997,-0.022 0.1945996,-0.022 0,-0.7076 z m 1.4065564,0.6192 c 0.069908,-0.2391 0.1856226,-0.9657 0.1856226,-1.1656 l 0,-0.2019 -0.6545625,0.02 -0.6545624,0.02 -0.020622,0.6312 c -0.011342,0.3472 -0.00438,0.6736 0.01547,0.7254 0.025559,0.067 0.1902335,0.094 0.564271,0.094 0.442059,0 0.534082,-0.02 0.5643836,-0.1238 z m 1.4624312,1.946 c 0.0017,-0.049 0.216631,-0.2402 0.477654,-0.4256 0.547625,-0.389 1.288369,-1.0855 1.288369,-1.2115 0,-0.047 0.0365,-0.1225 0.0811,-0.1671 0.04461,-0.045 0.179941,-0.2808 0.300745,-0.5248 0.250978,-0.507 0.447245,-0.6489 0.37114,-0.2684 -0.04991,0.2496 -0.43954,0.9142 -0.591357,1.0087 -0.04998,0.031 -0.09087,0.1014 -0.09087,0.1561 0,0.1467 -0.7248,0.8516 -1.165254,1.1334 -0.210196,0.1344 -0.402083,0.2767 -0.426417,0.316 -0.06285,0.1017 -0.24878,0.089 -0.245115,-0.017 z m -6.2302543,-0.2654 c -0.041659,-0.078 -0.1189267,-0.1415 -0.1717068,-0.1415 -0.05278,0 -0.2711036,-0.1752 -0.4851632,-0.3892 -0.2140596,-0.2141 -0.4165433,-0.3893 -0.4499636,-0.3894 -0.03342,0 -0.1706803,-0.1614 -0.3050221,-0.3585 -0.1937858,-0.2843 -0.2242111,-0.3707 -0.1472426,-0.4183 0.079959,-0.049 0.069835,-0.1254 -0.057581,-0.432 -0.1947418,-0.4686 -0.2644547,-0.8801 -0.1600318,-0.9446 0.050161,-0.031 0.07877,0.023 0.079452,0.1503 0.00122,0.2286 0.1426024,0.6677 0.2608126,0.8102 0.044309,0.053 0.1031339,0.1924 0.1307224,0.3089 0.0578,0.2442 0.3112541,0.6939 0.4145216,0.7355 0.08503,0.034 1.0584357,1.0564 1.0916988,1.1464 0.047124,0.1274 -0.1267902,0.06 -0.2004966,-0.078 z m -2.1936688,-2.4372 c 0,-0.056 0.031191,-0.1212 0.069314,-0.1448 0.043798,-0.027 0.038272,-0.092 -0.015012,-0.1778 -0.1025361,-0.1642 -0.025638,-0.2645 0.1139536,-0.1487 0.1495611,0.1241 0.2123353,0.442 0.1012109,0.5124 -0.1431612,0.091 -0.2694667,0.072 -0.2694667,-0.041 z m 10.9641951,-0.3049 c -0.03693,-0.4722 0.0079,-1.3988 0.06865,-1.4191 0.169233,-0.056 0.0538,-1.3234 -0.16453,-1.8058 -0.173738,-0.384 -0.211075,-0.6848 -0.08499,-0.6848 0.146231,0 0.233837,0.1797 0.366428,0.7514 0.105647,0.4555 0.131831,0.635 0.218947,1.5003 0.04031,0.4004 -0.218284,1.7111 -0.337575,1.7111 -0.03453,0 -0.06465,-0.024 -0.06693,-0.053 z m -6.27489,-0.6563 c -0.1333372,-0.054 -0.1511453,-0.1 -0.114104,-0.2963 0.02414,-0.1279 0.067848,-0.2782 0.097129,-0.3338 0.033922,-0.064 -0.0017,-0.1462 -0.098186,-0.2254 -0.1306379,-0.1072 -0.1391263,-0.1444 -0.061836,-0.2712 0.049519,-0.081 0.069825,-0.2257 0.045401,-0.323 -0.05549,-0.2211 0.08872,-0.2356 0.3442829,-0.035 0.2281524,0.1795 0.3571801,0.1829 0.3016838,0.01 -0.026935,-0.085 0.020323,-0.208 0.1297685,-0.3381 0.094672,-0.1125 0.1832365,-0.2833 0.196811,-0.3795 0.029543,-0.2095 0.2236234,-0.2343 0.2622886,-0.034 0.01499,0.078 0.1046913,0.2336 0.1993349,0.346 0.094644,0.1125 0.1668596,0.2717 0.1604803,0.3539 -0.020254,0.2607 -0.00108,0.2665 0.2486806,0.076 0.2725676,-0.2079 0.4140529,-0.1797 0.3514017,0.07 -0.022756,0.091 -0.00695,0.1861 0.035122,0.2121 0.1267636,0.078 0.087266,0.3324 -0.057564,0.3703 -0.1216121,0.032 -0.1249379,0.053 -0.035818,0.2234 0.054034,0.1035 0.09844,0.2718 0.09868,0.374 3.538e-4,0.1516 -0.040257,0.1939 -0.2207001,0.23 -0.4158715,0.083 -0.4771258,0.06 -0.5256816,-0.1988 -0.106174,-0.566 -0.5817425,-0.5935 -0.7466011,-0.043 -0.072218,0.2411 -0.1147769,0.2856 -0.2691792,0.2818 -0.1008692,0 -0.2544965,-0.033 -0.341394,-0.068 z m 0.4764311,-0.2047 c 0,-0.036 0.019329,-0.1154 0.042953,-0.177 0.034275,-0.089 -0.00861,-0.1119 -0.2122905,-0.1119 -0.2250838,0 -0.2552432,0.021 -0.2552432,0.1769 0,0.1494 0.033023,0.1769 0.2122905,0.1769 0.1167598,0 0.2122905,-0.029 0.2122905,-0.065 z m 1.4732645,-0.094 c -0.017331,-0.122 -0.076326,-0.1644 -0.2525939,-0.1814 -0.2054208,-0.02 -0.2299814,0 -0.2299814,0.1592 0,0.1608 0.028671,0.1814 0.2525939,0.1814 0.2214735,0 0.2498079,-0.02 0.2299814,-0.1592 z m -1.2616689,-0.4414 c 0.071054,-0.086 0.064722,-0.114 -0.033859,-0.1519 -0.1113198,-0.043 -0.2446227,0.067 -0.2474166,0.2041 -0.0019,0.093 0.1905323,0.057 0.2812755,-0.052 z m 0.8498571,-0.036 c 0,-0.093 -0.047176,-0.1416 -0.1373506,-0.1416 -0.1908034,0 -0.2448015,0.1181 -0.094119,0.2058 0.1837679,0.107 0.2314696,0.094 0.2314696,-0.064 z m -0.3891993,-0.2831 c 0.025584,-0.041 -0.047833,-0.071 -0.1769088,-0.071 -0.1290758,0 -0.2024933,0.029 -0.1769088,0.071 0.024054,0.039 0.1036628,0.071 0.1769088,0.071 0.073246,0 0.1528549,-0.032 0.1769088,-0.071 z m -5.7856974,0.8882 c -0.1314201,-0.096 -0.1695213,-0.4361 -0.053274,-0.4754 0.045706,-0.015 0.044872,-0.1781 -0.00242,-0.4713 -0.065512,-0.4062 -0.058171,-0.4704 0.079261,-0.6928 0.089646,-0.145 0.1354868,-0.3061 0.1123206,-0.3947 -0.0573,-0.2191 0.1319223,-0.8724 0.3019275,-1.0424 0.08072,-0.081 0.1467634,-0.2087 0.1467634,-0.2843 0,-0.076 0.057823,-0.1791 0.1284962,-0.23 0.070673,-0.051 0.1492824,-0.1482 0.1746878,-0.2163 0.025405,-0.068 0.087661,-0.1238 0.138345,-0.1238 0.050684,0 0.170432,-0.1433 0.2661061,-0.3185 0.095674,-0.1751 0.1994735,-0.3184 0.2306654,-0.3184 0.031192,0 0.1545691,-0.1115 0.2741716,-0.2477 0.1196025,-0.1362 0.2575835,-0.2476 0.3066243,-0.2476 0.049041,0 0.167481,-0.078 0.2632004,-0.1741 0.1872807,-0.1873 1.0576123,-0.5621 1.4905155,-0.6419 0.4793921,-0.088 0.2932119,0.097 -0.4599628,0.4586 -0.5469791,0.2624 -0.8856397,0.4883 -1.377312,0.9186 -0.3585923,0.3139 -0.6898412,0.6424 -0.7361087,0.73 -0.046267,0.088 -0.2059775,0.3438 -0.3549112,0.5691 -0.3943211,0.5965 -0.6870419,1.6792 -0.7080055,2.6186 -0.00764,0.3422 -0.03282,0.6339 -0.055961,0.6482 -0.023141,0.014 -0.09745,-0.014 -0.1651301,-0.064 z m 2.8284015,-0.8668 c -0.072688,-0.019 -0.1452726,-0.1255 -0.170167,-0.25 -0.039911,-0.1995 -0.050931,-0.2067 -0.1366604,-0.09 -0.087821,0.1201 -0.095994,0.1204 -0.1404103,0 -0.030093,-0.078 0.00698,-0.177 0.1024501,-0.2725 l 0.1496113,-0.1496 0.1734183,0.1629 c 0.1830678,0.172 0.3269352,0.1495 0.3231717,-0.051 -0.0045,-0.2392 -0.174713,-0.3626 -0.499177,-0.3619 -0.1717941,3e-4 -0.5027428,-0.013 -0.7354416,-0.03 -0.3870241,-0.027 -0.4432163,-0.053 -0.659216,-0.3032 -0.2032005,-0.235 -0.2296836,-0.3075 -0.1899167,-0.5195 0.097631,-0.5204 0.6679181,-0.7934 1.0422622,-0.4989 0.2243466,0.1764 0.2394716,0.2589 0.079841,0.4353 -0.1059755,0.1171 -0.1310078,0.1184 -0.3278261,0.017 -0.1763787,-0.091 -0.2234646,-0.094 -0.2733124,-0.015 -0.033123,0.052 -0.052177,0.1208 -0.042342,0.1522 0.027359,0.087 0.6090006,0.3311 0.6462584,0.2708 0.018018,-0.029 0.2441075,-0.031 0.5024205,0 0.4022971,0.042 0.5043975,0.082 0.7118527,0.2833 0.193265,0.1874 0.2421927,0.2899 0.2421927,0.5076 0,0.2247 -0.046765,0.3157 -0.2653632,0.5165 -0.2659595,0.2442 -0.2984526,0.2561 -0.5336456,0.195 z m 5.0822714,-0.188 c -0.06871,-0.05 -0.134451,-0.1782 -0.146092,-0.2842 -0.01164,-0.1061 -0.05853,-0.2378 -0.104189,-0.2929 -0.066128,-0.08 -0.00746,-0.2266 0.288318,-0.7219 0.472919,-0.792 0.45561,-0.7585 0.361572,-0.7004 -0.04408,0.027 -0.258807,0.2869 -0.477163,0.577 -0.2183575,0.2902 -0.4112347,0.5276 -0.4286171,0.5276 -0.017383,0 -0.1126378,-0.053 -0.2116777,-0.118 -0.1563647,-0.1025 -0.1738879,-0.1514 -0.1330955,-0.3715 0.025837,-0.1395 0.1045552,-0.3491 0.1749288,-0.4659 0.070374,-0.1167 0.1500738,-0.3237 0.1771125,-0.4599 0.045084,-0.2272 0.040879,-0.236 -0.050708,-0.1062 -0.054927,0.078 -0.2184689,0.3565 -0.3634258,0.6192 -0.2652938,0.4808 -0.3682774,0.5671 -0.443332,0.3715 -0.022403,-0.058 -0.093051,-0.1071 -0.1569973,-0.1084 -0.1040797,0 -0.1048043,-0.011 -0.00691,-0.088 0.098049,-0.077 0.4213748,-0.6916 0.4213748,-0.8006 0,-0.024 0.095531,-0.1643 0.2122905,-0.3117 0.1167598,-0.1474 0.2122905,-0.3153 0.2122905,-0.373 0,-0.058 0.047765,-0.1447 0.1061453,-0.1931 0.05838,-0.049 0.1061453,-0.1142 0.1061453,-0.1462 0,-0.032 0.064888,-0.168 0.1441962,-0.3024 0.1615565,-0.2738 0.2653325,-0.2763 0.5902025,-0.014 0.201113,0.1622 0.202225,0.1671 0.08845,0.3952 -0.06337,0.127 -0.11551,0.2659 -0.115866,0.3085 -3.53e-4,0.043 -0.07897,0.2368 -0.174696,0.4314 -0.250775,0.5098 -0.233716,0.6931 0.03219,0.3459 0.115865,-0.1513 0.259161,-0.3255 0.318436,-0.3872 0.05927,-0.062 0.107772,-0.1482 0.107772,-0.1924 0,-0.044 0.04053,-0.065 0.09006,-0.046 0.04953,0.019 0.146865,-0.062 0.216291,-0.1791 0.151002,-0.2556 0.260602,-0.2671 0.509379,-0.053 0.169604,0.1459 0.17867,0.1784 0.09873,0.3538 -0.04841,0.1063 -0.114751,0.1932 -0.147424,0.1932 -0.03267,0 -0.0594,0.059 -0.0594,0.1312 0,0.072 -0.07961,0.2171 -0.176908,0.3221 -0.0973,0.105 -0.176909,0.2255 -0.176909,0.2679 0,0.042 -0.143296,0.3154 -0.318436,0.6068 -0.17514,0.2914 -0.318436,0.5417 -0.318436,0.5562 0,0.09 0.178092,-10e-4 0.295697,-0.1505 0.07654,-0.097 0.167048,-0.1769 0.201138,-0.1769 0.03409,0 0.147881,-0.08 0.252869,-0.1769 0.104989,-0.097 0.220138,-0.1769 0.255887,-0.1769 0.03575,0 0.145383,-0.096 0.243629,-0.2123 0.213562,-0.2538 0.343841,-0.2656 0.586071,-0.053 l 0.181469,0.1593 -0.172433,-0.1956 c -0.138801,-0.1574 -0.154919,-0.2126 -0.08263,-0.283 0.07176,-0.07 0.132804,-0.038 0.303859,0.1601 0.117733,0.1362 0.270718,0.3704 0.339966,0.5205 0.150459,0.3259 0.08264,0.5145 -0.294586,0.8194 -0.3774,0.3049 -0.666819,0.3978 -0.881602,0.2829 -0.09836,-0.053 -0.209334,-0.1527 -0.246609,-0.2224 -0.102109,-0.1908 -0.256834,-0.1547 -0.619083,0.1444 -0.441439,0.3645 -0.465431,0.3751 -0.60924,0.27 z m 1.957745,-0.8727 c 0.233426,-0.2236 0.254178,-0.4119 0.05703,-0.5174 -0.119197,-0.064 -0.181492,-0.036 -0.396078,0.1789 -0.24511,0.2451 -0.249997,0.2598 -0.130645,0.3916 0.163906,0.1811 0.233389,0.1733 0.469692,-0.053 z m -1.605997,-0.5175 c 0.02405,-0.039 0.01001,-0.071 -0.03121,-0.071 -0.04122,0 -0.07494,0.032 -0.07494,0.071 0,0.039 0.01404,0.071 0.03121,0.071 0.01716,0 0.05089,-0.032 0.07494,-0.071 z m -4.323809,0.4412 c -0.042899,-0.029 -0.212518,-0.2749 -0.3769316,-0.5473 -0.1644137,-0.2725 -0.4050512,-0.6459 -0.53475,-0.8299 -0.1296989,-0.184 -0.2487692,-0.3734 -0.2646007,-0.4209 -0.022326,-0.067 -0.079962,-0.065 -0.2568778,0.01 -0.2050959,0.085 -0.2382886,0.081 -0.3292154,-0.039 -0.055617,-0.073 -0.102135,-0.1724 -0.1033728,-0.2199 -0.00232,-0.089 0.9967179,-0.7983 1.1242802,-0.7983 0.1022676,0 0.2359142,0.2758 0.190722,0.3936 -0.021197,0.055 -0.086515,0.081 -0.1469761,0.058 -0.2279991,-0.087 -0.1009965,0.275 0.3142164,0.8967 0.2326722,0.3485 0.399851,0.6345 0.3715084,0.6358 -0.028343,0 -0.00244,0.041 0.057561,0.088 0.060001,0.047 0.1782527,0.1996 0.2627813,0.3381 0.1527674,0.2503 0.1528509,0.2525 0.013934,0.3715 -0.1541777,0.132 -0.2065359,0.1426 -0.3222792,0.065 z m 0.5379605,-0.5416 c 0,-0.2759 0.2958492,-2.4367 0.3616834,-2.6417 0.053825,-0.1675 0.1155948,-0.2293 0.2276034,-0.2277 0.2225864,0 0.4014024,0.1642 0.4014024,0.3613 0,0.094 0.043697,0.2339 0.097105,0.3106 0.053408,0.077 0.1320919,0.2829 0.1748533,0.4581 0.1231287,0.5043 0.3345441,1.2198 0.4262805,1.4427 0.096536,0.2346 0.1030586,0.2217 -0.1417252,0.2803 -0.2209965,0.053 -0.3409332,-0.063 -0.408731,-0.3943 -0.037953,-0.1855 -0.088975,-0.2358 -0.2788054,-0.2746 -0.2038526,-0.042 -0.2406363,-0.026 -0.2999031,0.1301 -0.037154,0.098 -0.075454,0.2773 -0.085112,0.399 -0.015331,0.1931 -0.046566,0.224 -0.2461056,0.2434 -0.1685359,0.016 -0.2285459,-0.01 -0.2285459,-0.087 z m 0.2378805,-0.218 c 0.022403,-0.058 0.00989,-0.1062 -0.027811,-0.1062 -0.037698,0 -0.068543,0.048 -0.068543,0.1062 0,0.058 0.012515,0.1061 0.027811,0.1061 0.015296,0 0.04614,-0.048 0.068543,-0.1061 z m 0.7116394,-0.7152 c 0.1624784,-0.062 0.1375187,-0.1628 -0.029594,-0.1191 -0.07784,0.02 -0.1415271,0.065 -0.1415271,0.1 0,0.074 0.022573,0.077 0.1711213,0.02 z m -0.015185,-0.2074 c 0.020899,-0.021 -0.00668,-0.1676 -0.061285,-0.3261 -0.054605,-0.1585 -0.079716,-0.3499 -0.055803,-0.4252 0.036306,-0.1144 0.013779,-0.133 -0.1365363,-0.1129 -0.2296531,0.031 -0.3082837,0.1083 -0.1654584,0.1631 0.082187,0.032 0.1008771,0.1045 0.072135,0.2816 -0.021337,0.1315 -0.019931,0.2882 0.00312,0.3483 0.040101,0.1045 0.2641413,0.1509 0.3438236,0.071 z m 5.0101596,0.3742 c -0.05745,-0.088 -0.140312,-0.24 -0.184145,-0.3387 -0.04383,-0.099 -0.245964,-0.3475 -0.449177,-0.5529 -0.223445,-0.2258 -0.354049,-0.4135 -0.330441,-0.4751 0.06441,-0.1678 0.154191,-0.1199 0.515327,0.2753 0.361915,0.396 0.759092,1.0773 0.691636,1.1865 -0.06318,0.1022 -0.13119,0.076 -0.2432,-0.095 z m -1.743858,-1.8576 c -0.0224,-0.058 -0.07121,-0.1061 -0.108459,-0.1061 -0.03725,0 -0.2416,-0.08 -0.454111,-0.1768 -0.9163113,-0.4191 -1.2055529,-0.4812 -2.27568,-0.4886 -0.6987448,0 -1.0082487,-0.031 -1.00838,-0.087 -2.052e-4,-0.088 0.6075896,-0.2648 0.7047407,-0.2047 0.095039,0.059 0.63412,0.066 0.690786,0.01 0.02796,-0.028 0.00731,-0.078 -0.045879,-0.1106 -0.056244,-0.035 -0.077245,-0.1105 -0.050185,-0.181 0.037829,-0.099 0.066223,-0.1049 0.151838,-0.034 0.057919,0.048 0.1053081,0.1472 0.1053081,0.2203 0,0.073 0.047765,0.1328 0.1061453,0.1328 0.066046,0 0.1061452,-0.067 0.1061452,-0.1769 0,-0.1832 0.096901,-0.2356 0.1817986,-0.098 0.026743,0.043 0.00474,0.107 -0.048896,0.1415 -0.082187,0.053 -0.081362,0.073 0.00524,0.129 0.056522,0.036 0.1295651,0.05 0.162318,0.029 0.032753,-0.02 0.099687,0 0.1487414,0.037 0.049055,0.041 0.3584575,0.1656 0.6875607,0.2775 0.673865,0.2292 1.19843,0.5302 1.19843,0.6876 0,0.1373 -0.204721,0.1366 -0.257464,-9e-4 z m -3.138471,-1.9384 c -0.120894,-0.034 -0.1484578,-0.066 -0.087821,-0.1036 0.1053486,-0.065 0.3701618,0.01 0.3701618,0.1008 0,0.073 -0.027962,0.074 -0.2823407,0 z m 2.546773,12.2969 c 0,-0.039 -0.03184,-0.051 -0.07076,-0.027 -0.03892,0.024 -0.07076,0.076 -0.07076,0.1145 0,0.039 0.03184,0.051 0.07076,0.027 0.03892,-0.024 0.07076,-0.076 0.07076,-0.1145 z m 0.735325,-0.2448 c 0.04711,-0.1228 -0.03927,-0.1315 -0.155064,-0.016 -0.0467,0.047 -0.08492,0.1094 -0.08492,0.1393 0,0.088 0.197851,-0.014 0.239981,-0.1236 z m 2.941869,-8.2208 c -0.0014,-0.029 -0.04801,-0.1326 -0.103637,-0.2299 l -0.10113,-0.177 -0.0025,0.1829 c -0.0014,0.1005 0.01872,0.204 0.04467,0.2299 0.06359,0.064 0.165715,0.06 0.162607,-0.01 z m -0.280546,-0.5838 c 0,-0.078 -0.05573,-0.1989 -0.123836,-0.269 -0.06811,-0.07 -0.193382,-0.2525 -0.278382,-0.4053 -0.151184,-0.2718 -0.305417,-0.4006 -0.305417,-0.255 0,0.04 0.09553,0.2146 0.212291,0.3876 0.116759,0.173 0.21229,0.3393 0.21229,0.3695 0,0.055 0.213091,0.3138 0.25864,0.3138 0.01343,0 0.02441,-0.064 0.02441,-0.1416 z"
         id="path4324"
         inkscape:connector-curvature="0" />
      <path
         style="fill-opacity:1"
         d="m 6.7122919,1051.6411 c -0.1454763,-0.1348 -0.2183269,-0.1591 -0.3174295,-0.1061 -0.2109565,0.1129 -0.4166535,0.079 -0.6623621,-0.1081 -0.153278,-0.1169 -0.3256707,-0.1778 -0.508314,-0.1796 -0.2323543,0 -0.2995253,-0.039 -0.4217227,-0.23 -0.1444579,-0.2259 -0.2061767,-0.2445 -0.5072099,-0.1533 -0.1667399,0.051 -0.2449435,-0.062 -0.3348583,-0.4819 -0.038382,-0.1793 -0.066245,-0.1942 -0.3315484,-0.177 -0.2846381,0.019 -0.2912198,0.014 -0.3807713,-0.2841 -0.1089319,-0.3622 -0.227791,-0.5199 -0.3809297,-0.5053 -0.062152,0.01 -0.1496925,0.01 -0.1945351,0 -0.095938,-0.01 -0.2369038,-0.3808 -0.2369038,-0.6238 0,-0.1266 -0.06173,-0.1958 -0.2417113,-0.271 -0.2650469,-0.1107 -0.3684311,-0.3639 -0.2847428,-0.6973 0.038778,-0.1546 0.00302,-0.2272 -0.2063133,-0.4189 -0.2445617,-0.224 -0.2529457,-0.2482 -0.2451225,-0.7073 0.00623,-0.3657 -0.021143,-0.5077 -0.1187314,-0.6155 -0.1074396,-0.1187 -0.1197327,-0.2165 -0.080402,-0.6397 0.025537,-0.2748 0.01285,-0.7098 -0.028192,-0.9667 -0.064115,-0.4013 -0.057236,-0.503 0.048848,-0.7219 0.067909,-0.1401 0.1364101,-0.4671 0.1522253,-0.7265 0.025378,-0.4164 0.054071,-0.4953 0.2443107,-0.6723 0.1503456,-0.1398 0.2019542,-0.1623 0.170595,-0.074 -0.092534,0.2596 -0.3193066,1.0904 -0.4001679,1.4661 -0.097469,0.4528 -0.065407,1.6983 0.063659,2.4729 0.087456,0.5249 0.6717066,1.9276 0.9300149,2.2329 0.065873,0.078 0.2082846,0.2848 0.3164695,0.4599 0.2461137,0.3984 1.3656579,1.5018 1.4628696,1.4417 0.039636,-0.024 0.099376,-6e-4 0.1327574,0.053 0.046422,0.075 0.090523,0.079 0.1875567,0.019 0.080242,-0.05 0.1880376,-0.056 0.2933249,-0.017 0.1309611,0.048 0.1590606,0.1003 0.13176,0.2431 -0.037579,0.1966 -0.036593,0.1972 0.7968762,0.5155 1.0019638,0.3826 2.9806517,0.4542 3.2273942,0.1168 0.068093,-0.093 0.088155,-0.095 0.1200665,-0.012 0.030702,0.08 0.09915,0.086 0.3444959,0.03 0.1684002,-0.038 0.3992173,-0.091 0.5129279,-0.1165 0.2321034,-0.053 0.2838294,-0.1362 0.1813024,-0.2925 -0.05671,-0.086 -0.08084,-0.089 -0.130178,-0.012 -0.03331,0.052 -0.2004892,0.1083 -0.3715083,0.126 l -0.3109434,0.032 0.3184358,-0.1617 c 0.1751397,-0.089 0.3498699,-0.2332 0.3882889,-0.3206 0.07615,-0.1733 0.218023,-0.2243 0.153099,-0.055 -0.02192,0.057 -0.0108,0.1219 0.02472,0.1438 0.03552,0.022 0.04788,0.083 0.02747,0.1367 -0.053,0.1381 0.08238,0.199 0.180242,0.081 0.05628,-0.068 0.05881,-0.1135 0.008,-0.1449 -0.141542,-0.087 -0.07751,-0.2498 0.09853,-0.2498 0.095,0 0.191166,-0.03 0.213697,-0.066 0.0455,-0.074 0.450481,-0.2875 0.544368,-0.2875 0.155897,0 0.03316,0.1988 -0.187781,0.3042 -0.249245,0.1188 -0.331281,0.2619 -0.150191,0.2619 0.05361,0 0.137122,-0.048 0.185573,-0.1061 0.04845,-0.058 0.13992,-0.1072 0.203264,-0.1084 0.12056,0 0.178215,-0.04 0.658737,-0.4307 0.974717,-0.7924 1.904053,-2.1518 2.292188,-3.3529 l 0.09146,-0.2831 0.0047,0.4023 c 0.0061,0.5195 -0.08078,0.7353 -0.423516,1.0518 -0.201578,0.186 -0.279495,0.3151 -0.27978,0.4633 -2.12e-4,0.1131 -0.03292,0.3226 -0.07268,0.4658 -0.0604,0.2174 -0.123251,0.2797 -0.382264,0.3786 -0.269221,0.1028 -0.316185,0.1523 -0.357141,0.3766 -0.02594,0.142 -0.09345,0.3301 -0.15004,0.418 -0.08819,0.1369 -0.142861,0.1533 -0.382787,0.115 -0.293853,-0.047 -0.294901,-0.046 -0.383001,0.3267 -0.06455,0.2732 -0.223273,0.4364 -0.474431,0.4878 -0.15329,0.031 -0.267736,0.1166 -0.345418,0.2572 -0.132946,0.2407 -0.363389,0.302 -0.619665,0.1649 -0.163296,-0.087 -0.189524,-0.076 -0.404196,0.18 l -0.2295691,0.2734 -0.2170062,-0.1604 c -0.2411727,-0.1783 -0.4318549,-0.1506 -0.4898661,0.071 -0.044938,0.1719 -0.3831462,0.1949 -0.5157549,0.035 -0.048451,-0.058 -0.12806,-0.1062 -0.1769088,-0.1062 -0.048849,0 -0.1284577,0.048 -0.1769088,0.1062 -0.1076484,0.1297 -0.5809028,0.1403 -0.7886042,0.018 -0.1198499,-0.071 -0.156219,-0.071 -0.1818456,0 -0.054702,0.151 -0.4252173,0.1 -0.6263367,-0.087 z m 4.0381281,-0.9572 c 0.02405,-0.039 -0.0059,-0.071 -0.06659,-0.071 -0.06068,0 -0.110321,0.032 -0.110321,0.071 0,0.039 0.02996,0.071 0.06659,0.071 0.03662,0 0.08627,-0.032 0.110322,-0.071 z m -3.5735577,0.5144 c -0.1362198,-0.016 -0.2795159,-0.062 -0.3184358,-0.1023 -0.048591,-0.05 0.00684,-0.056 0.1769088,-0.018 0.1362197,0.03 0.5898873,0.053 1.0081501,0.05 0.4335991,0 0.7435737,0.022 0.7211501,0.058 -0.038364,0.062 -1.093419,0.07 -1.5877732,0.012 z m 2.1658276,-0.4243 c -0.082764,-0.083 -0.04189,-0.2189 0.061175,-0.2038 0.057253,0.01 0.1177285,0.029 0.1343898,0.047 0.047243,0.049 -0.147249,0.2053 -0.1955649,0.157 z m -2.5904087,-0.6606 c -0.8765628,-0.2605 -1.2029797,-0.3878 -1.2029797,-0.4694 0,-0.075 0.054375,-0.071 0.2653632,0.02 0.5491854,0.2359 1.5078909,0.3923 2.317505,0.3781 0.9185492,-0.016 0.9519418,-0.013 0.8137803,0.075 -0.122377,0.078 -1.9291621,0.075 -2.1936688,0 z m 3.3889818,-0.4243 c 0.09308,-0.078 0.188564,-0.1216 0.21218,-0.098 0.05025,0.05 -0.196782,0.2447 -0.306493,0.2413 -0.04121,0 0.0012,-0.066 0.09431,-0.1433 z m -2.658824,-0.6627 c -0.2605059,-0.267 -0.5296419,-0.6286 -0.6283084,-0.8441 -0.2005593,-0.4381 -0.4165264,-1.2504 -0.4872136,-1.8327 l -0.049401,-0.4069 1.6704716,0 1.670472,0 -0.045121,0.3716 c -0.185256,1.5253 -0.7440047,2.6916 -1.4720351,3.0728 -0.2027086,0.1061 -0.2041601,0.1053 -0.658865,-0.3607 z m 0.386843,-0.5539 -0.020166,-0.7253 -0.4527753,-0.021 c -0.2490265,-0.012 -0.4823904,0.01 -0.5185864,0.044 -0.145597,0.1456 0.7103736,1.4276 0.953189,1.4276 0.032178,0 0.049431,-0.3264 0.038339,-0.7254 z m 0.7913906,0.2477 c 0.00122,-0.049 -0.027346,-0.088 -0.063486,-0.088 -0.1022589,0 -0.2881087,0.2108 -0.2881087,0.3268 0,0.086 0.03099,0.082 0.1746854,-0.023 0.096076,-0.07 0.1756853,-0.1669 0.1769088,-0.2156 z m -0.1808793,-0.2728 c 0.1295453,-0.05 0.080962,-0.1695 -0.068746,-0.1695 -0.056083,0 -0.1019688,0.048 -0.1019688,0.1062 0,0.119 0.012998,0.1239 0.1707149,0.063 z m 0.5381586,-0.3134 c 0.080103,-0.157 0.1266356,-0.3162 0.1034067,-0.3538 -0.056032,-0.091 -0.7415166,-0.088 -0.7415166,0 0,0.039 0.079609,0.071 0.1769087,0.071 0.1690151,0 0.2095732,0.061 0.1805177,0.2726 -0.015281,0.1112 0.046136,0.2935 0.098877,0.2935 0.01989,0 0.1017034,-0.1285 0.1818063,-0.2855 z m -0.7480467,-0.2629 c 0.036135,-0.1182 0.020076,-0.1593 -0.062203,-0.1593 -0.081374,0 -0.1103408,0.071 -0.108762,0.2654 0.0022,0.2715 0.067922,0.2307 0.1709654,-0.1061 z m -1.1289846,-0.3706 c 0.023746,-0.039 0.021148,-0.2646 -0.00577,-0.5025 -0.044545,-0.3938 -0.067146,-0.439 -0.2512887,-0.5032 -0.2535829,-0.088 -0.25556,-0.1648 -0.00774,-0.2993 l 0.1945996,-0.1056 -0.2611869,0 c -0.1436528,0 -0.2774642,0.024 -0.2973587,0.056 -0.019894,0.032 0.00995,0.3427 0.066318,0.6899 0.056369,0.3473 0.1026109,0.6553 0.102759,0.6845 4.033e-4,0.079 0.409631,0.064 0.4596722,-0.017 z m 0.7435768,-0.6732 0,-0.743 -0.2299814,0 c -0.2169234,0 -0.2209413,0.01 -0.070763,0.082 0.2075888,0.1002 0.2016489,0.2234 -0.017691,0.3671 -0.1551044,0.1017 -0.1769088,0.1666 -0.1769088,0.5271 0,0.2261 0.021229,0.4324 0.047176,0.4583 0.025947,0.026 0.1373991,0.047 0.2476723,0.047 l 0.2004966,0 0,-0.743 z m 1.4635613,0.3686 c 0.04602,-0.1864 0.093785,-0.5049 0.1061453,-0.7076 l 0.022472,-0.3686 -0.6899443,-0.02 -0.6899442,-0.02 0,0.7484 0,0.7484 0.583799,-0.021 0.5837989,-0.021 0.083673,-0.339 z m -2.1711964,-0.8286 c 0,-0.039 -0.031844,-0.071 -0.070763,-0.071 -0.03892,0 -0.070763,0.032 -0.070763,0.071 0,0.039 0.031843,0.071 0.070763,0.071 0.03892,0 0.070763,-0.032 0.070763,-0.071 z m 3.5754327,3.0459 c -0.01979,-0.032 0.232096,-0.253 0.559746,-0.4911 0.327652,-0.238 0.709292,-0.5655 0.84809,-0.7276 0.138799,-0.1622 0.271023,-0.2762 0.293832,-0.2534 0.06116,0.061 -0.183079,0.4104 -0.454628,0.6501 -0.392414,0.3463 -1.208539,0.8843 -1.24704,0.822 z m -6.4525451,-0.4506 c -1.0702928,-0.8664 -1.5209482,-1.396 -1.3026412,-1.5309 0.076471,-0.047 0.072507,-0.1004 -0.021561,-0.289 -0.1485373,-0.2977 -0.1451895,-0.329 0.01926,-0.1802 0.073986,0.067 0.1557359,0.239 0.1816671,0.3825 0.057384,0.3173 0.3549732,0.7914 0.4967806,0.7914 0.056828,0 0.1514131,0.093 0.2101886,0.2067 0.058775,0.1136 0.2478323,0.3221 0.4201263,0.4633 0.172294,0.1412 0.3310065,0.303 0.3526946,0.3595 0.050208,0.1308 0.070601,0.1424 -0.3565149,-0.2033 z m 8.1843761,-1.1579 c 0,-0.024 0.07961,-0.1485 0.176908,-0.2761 0.0973,-0.1275 0.176909,-0.2671 0.176909,-0.3102 0,-0.1323 0.281674,-0.6388 0.355256,-0.6388 0.09581,0 0.08719,0.082 -0.04112,0.3886 -0.148863,0.3563 -0.444581,0.795 -0.567701,0.8422 -0.05514,0.021 -0.100256,0.019 -0.100256,-0.01 z m -9.6890148,-1.1248 c 0.0034,-0.082 0.020163,-0.099 0.042753,-0.043 0.020442,0.051 0.017928,0.1121 -0.00559,0.1356 -0.023514,0.024 -0.040239,-0.018 -0.037166,-0.093 z m -0.4173338,-0.095 c 0.066764,-0.1069 0.065049,-0.1596 -0.00806,-0.2477 -0.076993,-0.093 -0.076266,-0.1118 0.00426,-0.1113 0.08781,5e-4 0.2740281,0.2982 0.2740281,0.4381 0,0.031 -0.079879,0.057 -0.1775084,0.057 -0.1572905,0 -0.1678502,-0.015 -0.092712,-0.1357 z m 0.2939849,-0.2582 c -0.023406,-0.061 -0.00649,-0.147 0.037603,-0.1911 0.059704,-0.06 0.08016,-0.031 0.08016,0.1109 0,0.2129 -0.052983,0.249 -0.1177623,0.08 z m 10.6217097,-0.5791 c 0.0053,-0.3405 0.04366,-0.6828 0.08523,-0.7607 0.08062,-0.1509 0.07389,-0.9249 -0.01147,-1.3189 -0.02834,-0.1308 -0.10823,-0.3652 -0.17754,-0.5209 -0.167488,-0.3762 -0.230215,-0.6723 -0.142435,-0.6723 0.378878,0 0.684691,2.421 0.440234,3.4851 -0.05141,0.2238 -0.118264,0.4069 -0.148568,0.4069 -0.0303,0 -0.05076,-0.2786 -0.04545,-0.6192 z m 1.132204,0.507 c 0.03024,-0.075 0.08547,-0.5637 0.12272,-1.087 0.06433,-0.9037 0.06077,-0.9571 -0.07076,-1.0615 -0.0811,-0.064 -0.18665,-0.3064 -0.254688,-0.5842 -0.06391,-0.2608 -0.162649,-0.5634 -0.219433,-0.6722 -0.05678,-0.1089 -0.103438,-0.2637 -0.103678,-0.3439 -0.0011,-0.3522 -1.109721,-1.9399 -1.591775,-2.2797 -0.175602,-0.1238 -0.319276,-0.2576 -0.319276,-0.2973 0,-0.04 -0.04202,-0.072 -0.09338,-0.072 -0.05136,0 -0.165736,-0.083 -0.254165,-0.1849 -0.214632,-0.2469 -1.6810512,-0.9377 -2.1079823,-0.9932 -0.5408427,-0.07 -0.6229928,-0.1818 -0.099817,-0.1357 0.7698843,0.068 2.3031383,0.8715 3.0404323,1.5935 0.200243,0.196 0.364078,0.3851 0.364078,0.42 0,0.09 0.19987,0.156 0.245795,0.082 0.05143,-0.083 -0.588086,-0.7742 -1.024669,-1.1071 -0.200948,-0.1533 -0.353342,-0.3263 -0.353342,-0.4013 0,-0.1003 -0.03437,-0.1208 -0.143975,-0.086 -0.0888,0.028 -0.239494,-0.011 -0.393244,-0.1014 -0.137098,-0.081 -0.292561,-0.1471 -0.345473,-0.1471 -0.05291,0 -0.106818,-0.028 -0.119791,-0.062 -0.03499,-0.093 -1.0381479,-0.5036 -1.2298009,-0.5036 -0.090928,0 -0.1828862,-0.028 -0.2043516,-0.063 -0.048333,-0.078 -0.694759,-0.1151 -1.6537981,-0.094 -1.2692253,0.027 -2.6408949,0.5219 -3.5743367,1.2888 -0.4088128,0.3358 -1.3184888,1.3072 -1.393264,1.4877 -0.048196,0.1164 -0.1152237,0.2116 -0.1489509,0.2116 -0.033727,0 -0.1874899,0.2468 -0.341695,0.5484 l -0.280373,0.5484 -0.00354,-0.358 c -0.00383,-0.3878 0.080696,-0.5557 0.3468634,-0.6887 0.1229221,-0.061 0.2122227,-0.215 0.3172306,-0.5455 0.1298293,-0.4086 0.1669798,-0.4607 0.3326969,-0.467 0.293886,-0.011 0.4149419,-0.083 0.4149419,-0.2452 0,-0.2644 0.224363,-0.5615 0.4240929,-0.5615 0.2312887,0 0.4958327,-0.1837 0.4958327,-0.3443 0,-0.068 0.044565,-0.185 0.099032,-0.2595 0.088088,-0.1204 0.1188417,-0.1248 0.2782803,-0.04 0.2467264,0.1321 0.39313,0.056 0.5220446,-0.2725 0.1266769,-0.3225 0.2739536,-0.4067 0.4432643,-0.2535 0.2265181,0.205 0.5679933,0.091 0.5679933,-0.1894 0,-0.1394 0.3101159,-0.1846 0.3891993,-0.057 0.024054,0.039 0.1381738,0.071 0.2536,0.071 0.1587449,0 0.2262497,-0.043 0.2771264,-0.1769 0.081328,-0.2139 0.1499699,-0.2216 0.3184358,-0.035 0.166991,0.1845 0.4931668,0.1837 0.6229408,0 0.1141236,-0.1629 0.2727051,-0.1337 0.529508,0.098 0.1596758,0.1438 0.1649363,0.144 0.4082906,0.013 l 0.2465309,-0.1328 0.2146399,0.2056 c 0.2137489,0.2048 0.2155463,0.2051 0.4328221,0.08 0.2048205,-0.1175 0.2262585,-0.1179 0.3500675,-0.01 0.07254,0.066 0.131886,0.1603 0.131886,0.2103 0,0.1639 0.129024,0.1757 0.363506,0.033 0.272477,-0.1657 0.414892,-0.094 0.414892,0.2078 0,0.2636 0.177,0.4099 0.358604,0.2965 0.226026,-0.1412 0.419795,-0.1056 0.419795,0.077 0,0.3065 0.189788,0.4757 0.53372,0.4757 l 0.313404,0 0.08235,0.327 c 0.06353,0.2523 0.136547,0.3591 0.319454,0.467 0.18425,0.1087 0.237101,0.1867 0.237101,0.3498 0,0.3151 0.118192,0.4837 0.339033,0.4837 0.218788,0 0.309836,0.1542 0.449073,0.7605 0.05725,0.2493 0.139414,0.4068 0.25007,0.4793 0.168995,0.1108 0.213044,0.3774 0.119812,0.7254 -0.03404,0.1271 -0.06347,0.1438 -0.14056,0.08 -0.07334,-0.061 -0.0975,-0.061 -0.0975,0 0,0.093 0.07534,0.1937 0.40689,0.5451 0.253695,0.2688 0.294606,0.538 0.116995,0.7697 -0.08895,0.116 -0.09991,0.2701 -0.06083,0.8555 0.03896,0.5837 0.02698,0.754 -0.06567,0.9332 -0.130809,0.2529 -0.313329,0.4044 -0.22492,0.1866 z m -0.101699,-3.5675 c 0,-0.039 -0.01404,-0.071 -0.0312,-0.071 -0.01716,0 -0.05089,0.032 -0.07494,0.071 -0.02405,0.039 -0.01001,0.071 0.0312,0.071 0.04122,0 0.07494,-0.032 0.07494,-0.071 z m -0.285175,-0.6778 c -0.07054,-0.1855 -0.08592,-0.1936 -0.150028,-0.079 -0.05301,0.095 -0.03867,0.1769 0.05561,0.3185 0.155394,0.2333 0.215869,0.08 0.09442,-0.2394 z m -0.491417,-0.8763 c -0.274001,-0.4035 -0.426388,-0.5276 -0.426388,-0.3471 0,0.098 0.290426,0.5829 0.368495,0.6157 0.03085,0.013 0.05609,0.069 0.05609,0.1238 0,0.055 0.05573,0.1566 0.123836,0.2254 0.118347,0.1196 0.124818,0.1182 0.145971,-0.033 0.01339,-0.095 -0.09245,-0.3266 -0.268,-0.5851 z m -6.5807679,4.529 c -0.086988,-0.055 -0.090519,-0.1159 -0.021483,-0.3705 0.075371,-0.2778 0.069773,-0.3145 -0.063834,-0.4176 -0.138727,-0.107 -0.1403082,-0.1224 -0.029984,-0.2908 0.064057,-0.098 0.096415,-0.23 0.071908,-0.2938 -0.06125,-0.1596 0.1044533,-0.1467 0.3244014,0.025 0.23917,0.1871 0.283054,0.1769 0.283054,-0.065 0,-0.1175 0.076498,-0.2978 0.1769088,-0.4172 0.0973,-0.1156 0.1769088,-0.2613 0.1769088,-0.3238 0,-0.1952 0.1351104,-0.1244 0.2395023,0.1254 0.054931,0.1315 0.1349676,0.2607 0.1778587,0.2872 0.042891,0.027 0.077984,0.1578 0.077984,0.2917 0,0.2823 0.031173,0.2922 0.3184357,0.102 0.2617762,-0.1734 0.332827,-0.1775 0.3083846,-0.018 -0.010421,0.068 0.023203,0.2005 0.074718,0.2941 0.084151,0.153 0.076994,0.1828 -0.070468,0.2941 -0.1232057,0.093 -0.1453787,0.1475 -0.088924,0.2189 0.041365,0.052 0.097368,0.1876 0.1244518,0.3007 0.059694,0.2492 -0.031118,0.3226 -0.4012362,0.3241 -0.2289674,9e-4 -0.2650681,-0.021 -0.2632112,-0.1582 0.00192,-0.1422 0.00986,-0.1459 0.07428,-0.035 0.043444,0.074 0.1569358,0.1238 0.2853857,0.1238 0.1979716,0 0.2116685,-0.016 0.1910834,-0.23 -0.019509,-0.2023 -0.049879,-0.2326 -0.2526427,-0.2522 -0.161125,-0.015 -0.2436126,0.012 -0.2741576,0.092 -0.037956,0.099 -0.056994,0.095 -0.1450532,-0.031 -0.2030725,-0.2899 -0.5917829,-0.124 -0.6969857,0.2976 -0.040191,0.161 -0.086906,0.1944 -0.2708764,0.1935 -0.1222706,-6e-4 -0.269155,-0.031 -0.32641,-0.067 z m 0.5339947,-0.1757 c 0.05859,-0.2334 -0.010282,-0.3225 -0.2494909,-0.3225 -0.1557553,0 -0.2105241,0.04 -0.245661,0.1802 -0.060414,0.2407 -0.00253,0.3152 0.244994,0.3152 0.1602518,0 0.2165275,-0.039 0.2501579,-0.1729 z m 0.2185938,-0.5041 c 0.064176,-0.1673 -0.086397,-0.2863 -0.2209084,-0.1747 -0.060029,0.05 -0.1091444,0.1345 -0.1091444,0.1881 0,0.1345 0.2776225,0.1232 0.3300528,-0.013 z m 0.8729269,0.054 c 0,-0.031 -0.045819,-0.119 -0.1018202,-0.1946 -0.097782,-0.1319 -0.1069046,-0.1323 -0.2299814,-0.011 -0.1116985,0.1101 -0.1145265,0.135 -0.022016,0.1935 0.1303478,0.082 0.3538176,0.09 0.3538176,0.012 z m -0.4387338,-0.3107 c 0.1423578,-0.1423 0.096538,-0.1981 -0.1627561,-0.1981 -0.1665023,0 -0.2476722,0.033 -0.2476722,0.1002 0,0.1701 0.273108,0.2352 0.4104283,0.098 z m -5.8067355,0.7837 c -0.1499485,-0.084 -0.1599817,-0.2659 -0.02054,-0.3725 0.089119,-0.068 0.089627,-0.1339 0.00384,-0.4964 -0.095597,-0.404 -0.0931,-0.4282 0.075447,-0.7301 0.095874,-0.1717 0.1550477,-0.3434 0.1314972,-0.3815 -0.075534,-0.1222 0.047443,-0.7513 0.1733742,-0.887 0.1280336,-0.1378 0.2500995,-0.3801 0.233362,-0.4631 -0.00543,-0.027 0.069121,-0.1112 0.1656745,-0.1871 0.096554,-0.076 0.1755522,-0.1722 0.1755522,-0.2139 0,-0.042 0.063687,-0.1099 0.141527,-0.1515 0.07784,-0.042 0.1415271,-0.1182 0.1415271,-0.17 0,-0.1291 0.6992162,-0.8316 0.957681,-0.9621 0.1154543,-0.058 0.2355527,-0.1462 0.2668852,-0.1953 0.1164264,-0.1824 1.5309776,-0.686 1.6351881,-0.5821 0.038879,0.039 -0.00338,0.091 -0.1061453,0.131 -0.6378231,0.2489 -1.2042446,0.5548 -1.5773488,0.852 -0.5906899,0.4704 -1.1800939,1.1022 -1.4254895,1.528 -0.1121662,0.1946 -0.2216258,0.3697 -0.2432435,0.3892 -0.021618,0.019 -0.1281934,0.3127 -0.2368349,0.6517 -0.13282,0.4144 -0.2196562,0.8877 -0.2650718,1.4449 -0.037148,0.4558 -0.075663,0.8368 -0.085588,0.8468 -0.00993,0.01 -0.073507,-0.013 -0.1412925,-0.051 z m 2.8665117,-0.8464 c -0.091009,-0.034 -0.1592179,-0.1199 -0.1592179,-0.1997 0,-0.1768 -0.1385388,-0.2673 -0.2163545,-0.1414 -0.032452,0.053 -0.08177,0.073 -0.1095938,0.045 -0.062203,-0.062 0.1743324,-0.3345 0.2905665,-0.3345 0.046316,0 0.1418465,0.064 0.2122905,0.1416 0.1692465,0.187 0.2230287,0.1785 0.2788195,-0.044 0.070175,-0.2796 -0.1228512,-0.4517 -0.5067295,-0.4517 -0.1716663,0 -0.3737142,-0.033 -0.4489954,-0.073 -0.075281,-0.04 -0.1368749,-0.047 -0.1368749,-0.016 0,0.1184 -0.5388353,-4e-4 -0.7430169,-0.1637 -0.1846165,-0.1478 -0.2122905,-0.2158 -0.2122905,-0.5216 0,-0.3696 0.086589,-0.4932 0.4519355,-0.6452 0.129063,-0.054 0.2291696,-0.039 0.424581,0.062 0.316068,0.1639 0.3629988,0.3368 0.1213069,0.4469 -0.1972749,0.09 -0.3963336,-0.01 -0.3963336,-0.1952 0,-0.054 -0.031844,-0.097 -0.070764,-0.097 -0.03892,0 -0.070763,0.062 -0.070763,0.1374 0,0.076 -0.033918,0.1583 -0.075373,0.1839 -0.1136442,0.07 0.1242228,0.2995 0.365765,0.3526 0.1127241,0.025 0.2054405,0.082 0.2060365,0.1278 7.89e-4,0.06 0.016001,0.059 0.055967,0 0.035393,-0.056 0.2051036,-0.08 0.4778994,-0.069 0.3472812,0.014 0.4699114,0.055 0.6849459,0.2262 0.1454247,0.116 0.2815605,0.2984 0.3060646,0.4099 0.052151,0.2375 -0.086406,0.6162 -0.2254201,0.6162 -0.053658,0 -0.09756,0.031 -0.09756,0.068 0,0.1194 -0.2402573,0.2008 -0.4068901,0.1379 z m 5.0206711,-0.2203 c -0.0467,-0.047 -0.08492,-0.1563 -0.08492,-0.2435 0,-0.087 -0.03184,-0.1783 -0.07076,-0.2023 -0.1301834,-0.08 -0.07326,-0.2386 0.318436,-0.8846 0.21406,-0.353 0.389199,-0.6566 0.389199,-0.6747 0,-0.1239 -0.175227,0.043 -0.561746,0.5332 -0.2452486,0.3113 -0.4659727,0.5651 -0.4904972,0.5638 -0.024525,0 -0.1041674,-0.047 -0.1769838,-0.1025 -0.1070659,-0.081 -0.122786,-0.1514 -0.082173,-0.3679 0.02762,-0.1473 0.086313,-0.332 0.1304278,-0.4106 0.080448,-0.1432 0.2535548,-0.7178 0.2562269,-0.8504 7.854e-4,-0.039 -0.1276164,0.1601 -0.2853348,0.4423 -0.1577191,0.2821 -0.3180522,0.513 -0.3562971,0.513 -0.038244,0 -0.052754,0.027 -0.032244,0.06 0.02051,0.033 -0.011455,0.1208 -0.071032,0.1946 -0.077255,0.096 -0.1188884,0.1089 -0.1451572,0.046 -0.020259,-0.049 -0.089906,-0.089 -0.1547725,-0.091 -0.107039,0 -0.1075549,-0.01 -0.00558,-0.088 0.061796,-0.047 0.098947,-0.126 0.082558,-0.1747 -0.016389,-0.049 -0.00308,-0.088 0.029588,-0.088 0.032662,0 0.1018669,-0.1035 0.1537875,-0.23 0.1817802,-0.4429 0.3300962,-0.7058 0.4178005,-0.7407 0.04865,-0.019 0.088454,-0.093 0.088454,-0.1641 0,-0.071 0.039882,-0.171 0.088625,-0.2224 0.048744,-0.051 0.1522356,-0.2155 0.2299814,-0.3647 0.1752175,-0.3362 0.2072635,-0.3568 0.3971265,-0.2552 0.123927,0.066 0.134159,0.095 0.05454,0.1515 -0.0791,0.056 -0.07629,0.063 0.01455,0.034 0.186896,-0.059 0.289427,0.053 0.237688,0.2589 -0.02594,0.1033 -0.07896,0.1879 -0.11782,0.1879 -0.03887,0 -0.05213,0.048 -0.02947,0.1073 0.02266,0.059 -0.02271,0.2299 -0.100817,0.3798 -0.181754,0.3487 -0.287893,0.7158 -0.206949,0.7158 0.03422,0 0.150464,-0.1194 0.258314,-0.2653 0.10785,-0.146 0.298242,-0.3682 0.423095,-0.4938 0.124852,-0.1257 0.271751,-0.2924 0.326443,-0.3705 0.08727,-0.1245 0.122546,-0.1312 0.288248,-0.055 0.103845,0.048 0.206446,0.1419 0.228004,0.2086 0.04398,0.1359 -0.07855,0.4095 -0.183425,0.4095 -0.03755,0 -0.06827,0.065 -0.06827,0.1448 0,0.08 -0.07623,0.2209 -0.169404,0.3141 -0.09317,0.093 -0.15237,0.1865 -0.131552,0.2073 0.02082,0.021 -0.125855,0.3117 -0.325941,0.6465 -0.200086,0.3348 -0.363792,0.6222 -0.363792,0.6387 0,0.071 0.142052,0.02 0.294733,-0.1076 0.09088,-0.076 0.280886,-0.2349 0.422244,-0.3538 0.141357,-0.1189 0.283311,-0.2162 0.315452,-0.2162 0.03214,0 0.178718,-0.1175 0.325727,-0.261 l 0.267289,-0.261 0.177688,0.1669 c 0.202037,0.1898 0.333576,0.1412 0.154224,-0.057 -0.13109,-0.1448 -0.154927,-0.2956 -0.04674,-0.2956 0.03892,0 0.07076,0.024 0.07076,0.054 0,0.03 0.07614,0.1359 0.169189,0.2363 0.312815,0.3373 0.419132,0.6177 0.32262,0.8507 -0.112745,0.2722 -0.568218,0.6267 -0.867652,0.6752 -0.197842,0.032 -0.282878,4e-4 -0.49309,-0.1842 l -0.254019,-0.223 -0.436998,0.3217 c -0.479914,0.3533 -0.496658,0.3597 -0.619566,0.2368 z m 1.978995,-0.7466 c 0.248274,-0.2687 0.283776,-0.409 0.137104,-0.5418 -0.170359,-0.1541 -0.33712,-0.1416 -0.381668,0.029 -0.02036,0.078 -0.07573,0.1415 -0.123063,0.1415 -0.06392,0 -0.06166,-0.029 0.0088,-0.1143 0.08229,-0.099 0.07659,-0.1108 -0.04295,-0.088 -0.200271,0.039 -0.211813,0.4026 -0.01926,0.6076 0.190231,0.2025 0.203549,0.2014 0.42103,-0.034 z m -0.790168,-0.3007 c 0,-0.039 -0.03184,-0.071 -0.07076,-0.071 -0.03892,0 -0.07076,0.032 -0.07076,0.071 0,0.039 0.03184,0.071 0.07076,0.071 0.03892,0 0.07076,-0.032 0.07076,-0.071 z m -1.5214156,-0.2831 c -0.024054,-0.039 -0.073699,-0.071 -0.1103217,-0.071 -0.036623,0 -0.066587,0.032 -0.066587,0.071 0,0.039 0.049645,0.071 0.1103218,0.071 0.060677,0 0.090641,-0.032 0.066587,-0.071 z m 0.7430166,-0.044 c 0,-0.094 -0.01921,-0.099 -0.106145,-0.027 -0.05838,0.048 -0.106145,0.1002 -0.106145,0.1149 0,0.015 0.04777,0.027 0.106145,0.027 0.05838,0 0.106145,-0.052 0.106145,-0.1148 z m -0.636871,-0.097 c 0,-0.039 -0.031844,-0.071 -0.070764,-0.071 -0.03892,0 -0.070763,0.032 -0.070763,0.071 0,0.039 0.031843,0.071 0.070763,0.071 0.03892,0 0.070764,-0.032 0.070764,-0.071 z m -0.7076354,-0.5661 c 0,-0.039 -0.031844,-0.071 -0.070763,-0.071 -0.03892,0 -0.070763,0.032 -0.070763,0.071 0,0.039 0.031844,0.071 0.070763,0.071 0.03892,0 0.070763,-0.032 0.070763,-0.071 z m -2.9918585,1.1088 c -0.056089,-0.045 -0.2258383,-0.2897 -0.377221,-0.5427 -0.1513827,-0.253 -0.299124,-0.4706 -0.3283139,-0.4836 -0.02919,-0.013 -0.054367,-0.061 -0.055949,-0.1061 -0.00158,-0.045 -0.097112,-0.1928 -0.2122905,-0.3276 -0.115178,-0.1347 -0.2094146,-0.286 -0.2094146,-0.3361 0,-0.116 -0.032746,-0.1144 -0.2796,0.013 -0.1918098,0.099 -0.2076926,0.095 -0.3205759,-0.077 -0.065322,-0.1 -0.1082623,-0.1884 -0.095423,-0.1972 0.5402511,-0.369 0.8655776,-0.5421 0.9547662,-0.5079 0.075487,0.029 0.098267,0.011 0.072023,-0.058 -0.060969,-0.1589 0.034695,-0.1957 0.1761025,-0.068 0.1729195,0.1565 0.1711918,0.3304 -0.00273,0.2752 -0.105644,-0.034 -0.1415201,0 -0.1779938,0.1864 -0.032555,0.1628 -0.016213,0.2449 0.056869,0.2858 0.056403,0.032 0.2003892,0.2284 0.3199702,0.4374 0.119581,0.209 0.2649831,0.4195 0.3231158,0.4677 0.058133,0.048 0.1056962,0.1475 0.1056962,0.2206 0,0.073 0.028698,0.1329 0.063774,0.1329 0.035076,0 0.1299309,0.1121 0.2107896,0.2491 0.1443839,0.2447 0.1446113,0.2516 0.012702,0.3835 -0.1055674,0.1056 -0.1561394,0.1166 -0.2362932,0.052 z m -0.546317,-1.4668 c 0,-0.037 -0.031844,-0.067 -0.070763,-0.067 -0.03892,0 -0.070764,0.05 -0.070764,0.1103 0,0.061 0.031844,0.091 0.070764,0.067 0.03892,-0.024 0.070763,-0.074 0.070763,-0.1103 z m 1.1322161,0.967 c 0,-0.054 0.047765,-0.1169 0.1061453,-0.1393 0.05838,-0.022 0.1061453,-0.09 0.1061453,-0.1491 0,-0.1302 -0.1159978,-0.1443 -0.1634971,-0.02 -0.031488,0.082 -0.022767,-0.069 0.056151,-0.973 0.086366,-0.9897 0.2218952,-1.5922 0.3581802,-1.5922 0.025171,0 0.1382483,0.055 0.2512832,0.1214 0.1425162,0.084 0.2055179,0.1775 0.2055179,0.3043 0,0.1006 0.027997,0.2132 0.062215,0.2501 0.034218,0.037 0.1007817,0.1879 0.1479187,0.3354 0.067127,0.2099 0.067102,0.2905 -1.133e-4,0.3715 -0.068448,0.082 -0.065409,0.1034 0.015008,0.1034 0.1170374,0 0.3749411,0.6588 0.3170042,0.8098 -0.021306,0.056 -0.011038,0.111 0.022818,0.1232 0.033856,0.012 0.083284,0.1099 0.1098412,0.2169 0.044716,0.1802 0.032378,0.1946 -0.1669077,0.1946 -0.2227406,0 -0.2402266,-0.025 -0.3298038,-0.4712 -0.042285,-0.2107 -0.061992,-0.2229 -0.3414097,-0.2123 -0.2739607,0.01 -0.2983575,0.027 -0.3204865,0.2235 -0.013174,0.1168 -0.054525,0.2493 -0.091891,0.2945 -0.044322,0.054 -0.039519,0.1 0.013816,0.1326 0.059693,0.037 0.055846,0.067 -0.014255,0.1114 -0.1485426,0.094 -0.3436816,0.074 -0.3436816,-0.036 z m 0.3538176,-0.7506 c 0,-0.039 -0.031844,-0.071 -0.070763,-0.071 -0.03892,0 -0.070763,0.032 -0.070763,0.071 0,0.039 0.031843,0.071 0.070763,0.071 0.03892,0 0.070763,-0.032 0.070763,-0.071 z m 0.6077281,-0.3007 c -0.1653871,-0.5768 -0.2029828,-0.917 -0.1078469,-0.9758 0.053631,-0.033 0.07019,-0.086 0.036799,-0.1172 -0.033391,-0.031 -0.074927,-0.017 -0.092302,0.031 -0.017375,0.049 -0.124468,0.089 -0.2379844,0.089 -0.1362853,0 -0.2063936,0.036 -0.2063936,0.1061 0,0.058 0.040646,0.1062 0.090324,0.1062 0.063074,0 0.081974,0.088 0.062646,0.2902 -0.035468,0.3719 0.09848,0.6297 0.3272028,0.6297 0.1459697,0 0.1660264,-0.025 0.1275545,-0.1592 z m 4.8698961,0.1061 c -0.153748,-0.3022 -0.318428,-0.5104 -0.648015,-0.819 -0.224788,-0.2105 -0.300553,-0.4016 -0.159218,-0.4016 0.20083,0 1.061453,1.1446 1.061453,1.4117 0,0.157 -0.124938,0.063 -0.25422,-0.1911 z m -1.727158,-1.7514 c -0.04845,-0.058 -0.146002,-0.1061 -0.216779,-0.1061 -0.07078,0 -0.14651,-0.029 -0.168296,-0.064 -0.02179,-0.035 -0.318218,-0.1656 -0.6587386,-0.2897 -0.5565833,-0.2028 -0.7299334,-0.2307 -1.7159635,-0.2759 -0.6032589,-0.028 -1.049069,-0.068 -0.9906891,-0.089 0.4580371,-0.1659 0.5912612,-0.1884 0.7534247,-0.1267 0.4098871,0.1558 0.7396167,0.031 0.5141528,-0.1941 -0.051439,-0.051 -0.053059,-0.092 -0.00489,-0.1215 0.081496,-0.05 0.1832838,0.081 0.1860939,0.2409 0.00138,0.078 0.089865,0.1078 0.3349951,0.1127 0.1832188,0 0.3742803,0.04 0.4245811,0.081 0.050301,0.041 0.3462048,0.1595 0.6575646,0.2629 0.575362,0.1911 1.096834,0.4789 1.096834,0.6054 0,0.1037 -0.111999,0.084 -0.21229,-0.036 z m -2.4944139,-1.8544 c 0.08757,-0.017 0.2308659,-0.017 0.3184358,0 0.08757,0.017 0.015922,0.031 -0.1592179,0.031 -0.1751397,0 -0.2467877,-0.014 -0.1592179,-0.031 z m -0.6368716,-0.068 c 0.04865,-0.02 0.1282589,-0.02 0.1769088,0 0.04865,0.02 0.00885,0.036 -0.088454,0.036 -0.0973,0 -0.1371043,-0.016 -0.088454,-0.036 z"
         id="path4322"
         inkscape:connector-curvature="0" />
    </g>
  </g>
</svg>
